inDegrees=yes
name=ik_dynamic
DataType=double
version=3
OpenSimVersion=4.5
endheader
time	pelvis_tilt	pelvis_list	pelvis_rotation	pelvis_tx	pelvis_ty	pelvis_tz	hip_flexion_r	hip_adduction_r	hip_rotation_r	knee_angle_r	knee_angle_r_beta	ankle_angle_r	subtalar_angle_r	mtp_angle_r	hip_flexion_l	hip_adduction_l	hip_rotation_l	knee_angle_l	knee_angle_l_beta	ankle_angle_l	subtalar_angle_l	mtp_angle_l	lumbar_extension	lumbar_bending	lumbar_rotation	arm_flex_r	arm_add_r	arm_rot_r	elbow_flex_r	pro_sup_r	wrist_flex_r	wrist_dev_r	arm_flex_l	arm_add_l	arm_rot_l	elbow_flex_l	pro_sup_l	wrist_flex_l	wrist_dev_l
16.8500000000001	172.4332649493772	74.6543147081877	187.2946690522425	0	0.9399999999999999	0	2.202532182680501	-31.89233742233709	-11.53711857253018	6.720449823021502	0.1172939766267954	-4.999985618816683	0	0	1.860630360854085	14.50060627755624	-1.956243933049273	3.251172142429057	0.05674365843450508	-4.999985618816683	0	0	0	0	0	0	-13.04564876536168	0	74.45273475474045	45.00379398922497	0	0	0	-13.04564876536168	0	74.45273475474045	45.00379398922497	0	0
16.90000000000011	171.3487456570115	75.98762792922186	188.9452726653226	0	0.9399999999999999	0	1.866412846435199	-39.1840010146581	-9.89252960483085	6.662569047030526	0.1162837665121436	-4.999985975122955	0	0	0.8984024241354658	23.64546953037674	-1.407101491960822	2.372575633756179	0.04140925656163643	-4.999985975122955	0	0	0	0	0	0	-13.05196453573727	0	74.45604971467625	45.00373447162846	0	0	0	-13.05196453573727	0	74.45604971467625	45.00373447162846	0	0
16.95000000000011	169.550159161971	78.39827611069531	191.4875832106168	0	0.9399999999999999	0	-0.036680379543009	-45.18496123515411	-8.311838222698537	4.44390558014262	0.07756078402123746	-4.999986372164378	0	0	-0.2038409340194053	29.83206822183672	-0.3202842749399343	1.640148928069876	0.02862599901787498	-4.999986372164378	0	0	0	0	0	0	-13.05911244785969	0	74.45979984888449	45.00366758532553	0	0	0	-13.05911244785969	0	74.45979984888449	45.00366758532553	0	0
17.00000000000011	158.8192203209072	84.2238952351959	203.0704313980366	0	0.9399999999999999	0	-2.654260100002425	-44.31509309975663	-7.477092633451645	0.847542472815401	0.01479240670112328	-4.999987604367777	0	0	-1.759664355892608	29.96811673509575	1.292213789626344	0.9117237845774867	0.01591258190962064	-4.999987604367777	0	0	0	0	0	0	-13.08214899390002	0	74.47186138525522	45.00345589150331	0	0	0	-13.08214899390002	0	74.47186138525522	45.00345589150331	0	0
17.05000000000011	159.2923541977885	90.88632917135263	203.451305603566	0	0.9399999999999999	0	-0.08520581069018332	-40.5835585681589	-5.760764443078475	0.1217689138962564	0.002125268474067151	-4.999987877537558	0	0	-1.201717377993736	29.98465796024788	3.212079198884372	0.2293949330293045	0.004003696868753253	-4.999987877537558	0	0	0	0	0	0	-13.09052984931686	0	74.47573602823742	45.00340203879176	0	0	0	-13.09052984931686	0	74.47573602823742	45.00340203879176	0	0
17.10000000000011	196.0874445252371	96.9208290298142	167.9864923342929	0	0.9399999999999999	0	-1.752241164963639	-37.42309109068379	-4.618658351132644	0.05166667421563337	0.0009017535786180611	-4.999988788206056	0	0	-4.820535738838887	29.98775032383543	5.117781575264716	0.1141783880776023	0.001992788806574	-4.999988788206056	0	0	0	0	0	0	-13.11048681941439	0	74.48584729400682	45.00323698781329	0	0	0	-13.11048681941439	0	74.48584729400682	45.00323698781329	0	0
17.15000000000011	187.5334865818345	101.3289808585477	177.7896429060484	0	0.9399999999999999	0	-0.3588907668941027	-34.27704950277644	-4.04234336393466	0.03746989954662706	0.0006539731174801727	-4.999989029470881	0	0	-5.948734931257809	29.98781739308875	7.121931004676813	0.07838362930244974	0.001368052410990454	-4.999989029470881	0	0	0	0	0	0	-13.11513078072663	0	74.48831918690075	45.00319404338614	0	0	0	-13.11513078072663	0	74.48831918690075	45.00319404338614	0	0
17.20000000000011	181.4528740081722	105.652942103095	184.9582942171891	0	0.9399999999999999	0	1.791951593266004	-32.16450604413915	-4.071768238809243	0.03120156027687084	0.0005445699585908697	-4.999989211668237	0	0	-6.592001985816819	29.98631897527892	9.801112182115222	0.07090086494507167	0.001237453535803329	-4.999989211668237	0	0	0	0	0	0	-13.11871049052768	0	74.49021933183867	45.00316132949437	0	0	0	-13.11871049052768	0	74.49021933183867	45.00316132949437	0	0
17.25000000000011	177.4977878853504	111.7933005608699	188.9566951396818	0	0.9399999999999999	0	4.747602243155301	-29.65717138019848	-3.418328884712076	0.02614019240447996	0.0004562324245629885	-4.999989492957794	0	0	-5.794177485736001	29.97301415564204	10.86215280613138	0.08186162862129723	0.001428754950486463	-4.999989492957794	0	0	0	0	0	0	-13.1273146399215	0	74.49425590703954	45.00310490696508	0	0	0	-13.1273146399215	0	74.49425590703954	45.00310490696508	0	0
17.30000000000011	175.3586811414249	121.8372981284979	190.93716396909	0	0.9399999999999999	0	7.054376847895121	-24.1097728790748	-3.958177751536702	0.02496554288972459	0.0004357309229735537	-4.999989884865451	0	0	-3.607589619734436	26.18764090018232	10.73282170783103	0.1259584611470985	0.002198389867762222	-4.999989884865451	0	0	0	0	0	0	-13.1397262412715	0	74.50005171940187	45.00302513784851	0	0	0	-13.1397262412715	0	74.50005171940187	45.00302513784851	0	0
17.35000000000011	176.2322342705046	141.0048920353987	189.4968297007963	0	0.9399999999999999	0	8.431179807334217	-10.15720262729047	-5.111202867444539	0.02646760681736857	0.0004619468840863789	-4.999990886321438	0	0	-0.495430577729119	10.49951557577781	9.380293546069149	0.1783034851609073	0.003111982883838683	-4.999990886321438	0	0	0	0	0	0	-13.17009695855323	0	74.51459243299921	45.00282022746634	0	0	0	-13.17009695855323	0	74.51459243299921	45.00282022746634	0	0
17.40000000000011	176.1383672806133	157.5425081740015	187.8867570461643	0	0.9399999999999999	0	9.611599944893648	0.9637703222724905	-5.236064476496939	0.02991539331774038	0.0005221221104236798	-4.999991445260234	0	0	1.731182821727895	-1.9786702254864	7.978584121478039	0.2378149172762501	0.004150653316828509	-4.999991445260234	0	0	0	0	0	0	-13.1894462920242	0	74.52358513686167	45.00270111749845	0	0	0	-13.1894462920242	0	74.52358513686167	45.00270111749845	0	0
17.45000000000011	176.456790422193	171.5762443758167	186.2433768592442	0	0.9399999999999999	0	9.896390702496035	9.268652105148245	-5.395239583360584	0.0320317353932732	0.0005590592477402181	-4.999992183605992	0	0	2.623764372867999	-12.9247788351853	6.85032865776842	0.3173750889612249	0.005539240266183285	-4.999992183605992	0	0	0	0	0	0	-13.21617791621542	0	74.53594261122858	45.00254071572165	0	0	0	-13.21617791621542	0	74.53594261122858	45.00254071572165	0	0
17.50000000000011	176.9563484898821	178.9046254010143	185.0541150138886	0	0.9399999999999999	0	9.141887788089379	12.1398755593803	-4.767280924504978	0.03331433381916073	0.0005814448132528519	-4.999992436230455	0	0	2.523404094900064	-18.06666922550986	5.741725923978808	0.5060941570403492	0.008833009365459334	-4.999992436230455	0	0	0	0	0	0	-13.22772783594711	0	74.54098227404835	45.00248219689187	0	0	0	-13.22772783594711	0	74.54098227404835	45.00248219689187	0	0
17.55000000000011	177.340184256615	180.5224731959605	184.6377589901911	0	0.9399999999999999	0	7.964053546153923	12.51969716928107	-4.209393202537941	0.03591182000530124	0.0006267794994760741	-4.999992509751599	0	0	2.054119201031614	-17.19486552946362	4.930482320067274	0.7121788864093459	0.01242986643102978	-4.999992509751599	0	0	0	0	0	0	-13.23096514606119	0	74.54240739295193	45.00246535265369	0	0	0	-13.23096514606119	0	74.54240739295193	45.00246535265369	0	0
